<svg width="297" height="45" viewBox="0 0 297 45" fill="none" xmlns="http://www.w3.org/2000/svg">
<path d="M52.1804 28.3367C53.3584 28.6969 54.0318 29.9497 53.5552 31.0857C51.8135 35.2378 48.8412 38.7799 45.0141 41.2181C40.5573 44.0574 35.2336 45.2132 30.0006 44.4778C24.7676 43.7424 19.9688 41.1638 16.4672 37.2061C12.9657 33.2483 10.9912 28.171 10.899 22.8874C10.8068 17.6038 12.6028 12.4606 15.9641 8.38307C19.3254 4.30549 24.0314 1.56108 29.2355 0.643448C34.4396 -0.27418 39.8004 0.695204 44.3536 3.37724C48.2635 5.68034 51.3575 9.11654 53.2431 13.2054C53.759 14.324 53.1298 15.5996 51.965 16.0006V16.0006C50.8003 16.4017 49.5434 15.7741 48.9994 14.6689C47.479 11.5799 45.0836 8.9846 42.0895 7.22092C38.4515 5.07797 34.1682 4.30344 30.0101 5.03662C25.852 5.76981 22.092 7.9626 19.4063 11.2206C16.7206 14.4786 15.2856 18.5879 15.3593 22.8095C15.433 27.0311 17.0106 31.0879 19.8083 34.2501C22.606 37.4124 26.4403 39.4726 30.6215 40.0603C34.8026 40.6479 39.0562 39.7243 42.6172 37.4557C45.548 35.5886 47.8513 32.9113 49.263 29.7711C49.7681 28.6476 51.0023 27.9766 52.1804 28.3367V28.3367Z" fill="#1560BD"/>
<path fill-rule="evenodd" clip-rule="evenodd" d="M19.0979 24.9702L4.28904 43.0944C3.5789 43.9635 2.79229 44.0455 1.9292 43.3403L0.710263 42.3443C-0.152833 41.6391 -0.22932 40.8519 0.480816 39.9828L21.7355 13.9696C22.1324 13.4495 22.5651 12.9606 23.034 12.5034C24.2994 11.2595 25.7958 10.2988 27.5131 9.61614C29.2304 8.93351 31.0833 8.59473 33.0618 8.59473C35.0402 8.59473 36.8932 8.93351 38.6105 9.61614C40.3278 10.2988 41.8343 11.2595 43.1198 12.5034C44.4052 13.7473 45.4196 15.2137 46.1678 16.9076C46.916 18.6066 47.2876 20.4471 47.2876 22.4444C47.2876 24.4417 46.916 26.3379 46.1678 28.0319C45.4196 29.7308 44.4052 31.1972 43.1198 32.4411C41.8343 33.685 40.3329 34.6558 38.6105 35.3536C36.8932 36.0514 35.0402 36.4054 33.0618 36.4054C31.0833 36.4054 29.2304 36.0565 27.5131 35.3536C25.7958 34.6508 24.2994 33.685 23.034 32.4411C21.7635 31.1972 20.7593 29.7308 20.0111 28.0319C19.5847 27.0665 19.2806 26.0453 19.0979 24.9702ZM24.7262 26.3025C24.2391 25.1294 23.9981 23.8451 23.9981 22.4444C23.9981 21.0792 24.2391 19.8201 24.7262 18.6672C25.2133 17.5144 25.861 16.5182 26.6795 15.6789C27.498 14.8395 28.4521 14.1821 29.5468 13.7119C30.6415 13.2416 31.8115 13.004 33.0618 13.004C34.3121 13.004 35.4821 13.2416 36.5768 13.7119C37.6715 14.1821 38.6356 14.8395 39.4692 15.6789C40.3027 16.5182 40.9555 17.5144 41.4225 18.6672C41.8895 19.8201 42.1255 21.0438 42.1255 22.4444C42.1255 23.8451 41.8895 25.1294 41.4225 26.3025C40.9555 27.4756 40.3027 28.4819 39.4692 29.3213C38.6356 30.1606 37.6665 30.818 36.5768 31.2882C35.4872 31.7585 34.3121 31.9961 33.0618 31.9961C31.8115 31.9961 30.6415 31.7585 29.5468 31.2882C28.4521 30.818 27.493 30.1606 26.6795 29.3213C25.861 28.4819 25.2133 27.4756 24.7262 26.3025Z" fill="#1560BD"/>
<circle cx="52.418" cy="22.5001" r="2.34821" fill="#1560BD"/>
<g clip-path="url(#clip0_46_533)">
<path d="M95.7903 11.5342C95.7903 10.5719 96.2681 10.0907 97.2238 10.0907H98.4436C99.3993 10.0907 99.8771 10.5719 99.8771 11.5342V14.0752C99.8771 14.3073 99.8687 14.5268 99.8561 14.7336C99.8394 14.9405 99.8184 15.1135 99.7891 15.2613C99.7597 15.4385 99.7472 15.5989 99.7472 15.7424H99.8352C100.066 15.0122 100.393 14.2989 100.812 13.5982C101.231 12.8976 101.73 12.2771 102.312 11.7368C102.891 11.1966 103.536 10.7576 104.249 10.4242C104.957 10.0907 105.733 9.92188 106.575 9.92188C107.502 9.92188 107.967 10.4031 107.967 11.3654V12.5937C107.967 13.556 107.443 14.0372 106.399 14.0372C105.356 14.0372 104.391 14.3073 103.595 14.8476C102.799 15.3879 102.132 16.0801 101.596 16.9285C101.059 17.7769 100.661 18.7477 100.401 19.8409C100.141 20.9341 100.011 22.0231 100.011 23.1036V30.8109C100.011 31.7732 99.5334 32.2544 98.5777 32.2544H97.228C96.2723 32.2544 95.7945 31.7732 95.7945 30.8109V11.5342H95.7903Z" fill="#1560BD"/>
<path d="M109.011 21.124C109.011 19.461 109.321 17.9204 109.945 16.5022C110.57 15.0882 111.408 13.8599 112.469 12.8258C113.525 11.7875 114.774 10.9855 116.208 10.4157C117.641 9.84591 119.188 9.56311 120.839 9.56311C122.491 9.56311 124.038 9.84591 125.471 10.4157C126.905 10.9855 128.162 11.7875 129.235 12.8258C130.308 13.8642 131.155 15.0882 131.779 16.5022C132.404 17.9204 132.714 19.4568 132.714 21.124C132.714 22.7913 132.404 24.3741 131.779 25.7881C131.155 27.2063 130.308 28.4303 129.235 29.4687C128.162 30.507 126.909 31.3174 125.471 31.8999C124.038 32.4823 122.491 32.7778 120.839 32.7778C119.188 32.7778 117.641 32.4866 116.208 31.8999C114.774 31.3132 113.525 30.507 112.469 29.4687C111.408 28.4303 110.57 27.2063 109.945 25.7881C109.321 24.3741 109.011 22.8166 109.011 21.124ZM113.273 21.124C113.273 22.2932 113.475 23.3653 113.881 24.3445C114.288 25.3238 114.829 26.1637 115.512 26.8644C116.191 27.565 116.991 28.1138 117.905 28.5063C118.819 28.8988 119.796 29.0972 120.839 29.0972C121.883 29.0972 122.864 28.8988 123.773 28.5063C124.683 28.1138 125.492 27.565 126.188 26.8644C126.884 26.1637 127.429 25.3238 127.818 24.3445C128.208 23.3653 128.405 22.2932 128.405 21.124C128.405 19.9549 128.208 18.9334 127.818 17.971C127.429 17.0087 126.884 16.1772 126.188 15.4765C125.492 14.7759 124.687 14.2272 123.773 13.8346C122.86 13.4421 121.883 13.2437 120.839 13.2437C119.796 13.2437 118.819 13.4421 117.905 13.8346C116.991 14.2272 116.195 14.7759 115.512 15.4765C114.829 16.1772 114.288 17.0087 113.881 17.971C113.475 18.9334 113.273 19.9844 113.273 21.124Z" fill="#1560BD"/>
<path d="M187.121 11.5342C187.121 10.5718 187.599 10.0907 188.555 10.0907H189.775C190.73 10.0907 191.208 10.5718 191.208 11.5342V13.5053C191.208 13.7966 191.179 14.0878 191.12 14.3833C191.091 14.5015 191.078 14.6323 191.078 14.7758H191.166C191.367 14.3073 191.694 13.767 192.143 13.155C192.591 12.543 193.166 11.9732 193.861 11.4456C194.557 10.918 195.37 10.4748 196.297 10.1075C197.223 9.74456 198.296 9.55884 199.516 9.55884C202.127 9.55884 204.03 10.2679 205.233 11.6819C206.436 13.1001 207.04 15.2232 207.04 18.0554V30.7982C207.04 31.7605 206.562 32.2417 205.606 32.2417H204.257C203.301 32.2417 202.823 31.7605 202.823 30.7982V19.0178C202.823 18.2285 202.773 17.4983 202.672 16.8271C202.571 16.156 202.374 15.5736 202.085 15.0755C201.796 14.5817 201.373 14.1849 200.824 13.8937C200.274 13.6024 199.562 13.4547 198.694 13.4547C197.621 13.4547 196.636 13.6657 195.735 14.0878C194.838 14.5099 194.063 15.0882 193.409 15.8184C192.755 16.5486 192.248 17.4181 191.887 18.4226C191.522 19.4314 191.342 20.5035 191.342 21.6431V30.7982C191.342 31.7605 190.864 32.2417 189.909 32.2417H188.559C187.603 32.2417 187.125 31.7605 187.125 30.7982V11.5342H187.121Z" fill="#1560BD"/>
<path d="M212.824 11.5342C212.824 10.5718 213.302 10.0907 214.258 10.0907H215.477C216.433 10.0907 216.911 10.5718 216.911 11.5342V13.5053C216.911 13.7966 216.882 14.0878 216.823 14.3833C216.794 14.5015 216.781 14.6323 216.781 14.7758H216.869C217.07 14.3073 217.397 13.767 217.846 13.155C218.294 12.543 218.868 11.9732 219.564 11.4456C220.26 10.918 221.073 10.4748 222 10.1075C222.926 9.74456 223.999 9.55884 225.219 9.55884C227.83 9.55884 229.733 10.2679 230.936 11.6819C232.139 13.1001 232.743 15.2232 232.743 18.0554V30.7982C232.743 31.7605 232.265 32.2417 231.309 32.2417H229.959C229.004 32.2417 228.526 31.7605 228.526 30.7982V19.0178C228.526 18.2285 228.476 17.4983 228.375 16.8271C228.274 16.156 228.077 15.5736 227.788 15.0755C227.499 14.5817 227.076 14.1849 226.526 13.8937C225.977 13.6024 225.265 13.4547 224.397 13.4547C223.324 13.4547 222.339 13.6657 221.438 14.0878C220.541 14.5099 219.765 15.0882 219.112 15.8184C218.458 16.5486 217.95 17.4181 217.59 18.4226C217.225 19.4314 217.045 20.5035 217.045 21.6431V30.7982C217.045 31.7605 216.567 32.2417 215.612 32.2417H214.262C213.306 32.2417 212.828 31.7605 212.828 30.7982V11.5342H212.824Z" fill="#1560BD"/>
<path d="M237.135 21.1662C237.135 19.4146 237.416 17.8233 237.982 16.3925C238.548 14.9616 239.315 13.7418 240.287 12.7372C241.26 11.7284 242.417 10.9475 243.766 10.3946C245.116 9.84169 246.571 9.56311 248.138 9.56311C249.706 9.56311 250.993 9.8248 252.183 10.3524C253.369 10.88 254.363 11.606 255.163 12.543C255.96 13.4758 256.568 14.5859 256.991 15.8733C257.41 17.1564 257.62 18.5746 257.62 20.1195C257.62 20.5289 257.481 20.8792 257.205 21.1705C256.928 21.4617 256.576 21.6094 256.14 21.6094H241.44C241.499 22.8081 241.746 23.8718 242.178 24.8046C242.614 25.7374 243.18 26.5267 243.875 27.1683C244.571 27.8099 245.359 28.291 246.244 28.6118C247.128 28.9326 248.063 29.093 249.048 29.093C250.268 29.093 251.324 28.8946 252.221 28.5021C253.118 28.1095 253.814 27.7212 254.308 27.3413C255.18 26.8728 255.83 27.0332 256.266 27.8225L256.656 28.481C256.886 28.8609 256.966 29.2196 256.895 29.5531C256.823 29.8907 256.597 30.1735 256.22 30.4057C255.901 30.6378 255.495 30.8953 255 31.1739C254.505 31.4525 253.948 31.7057 253.323 31.9421C252.699 32.1742 252.003 32.3726 251.236 32.533C250.469 32.6934 249.647 32.7736 248.78 32.7736C247.04 32.7736 245.46 32.4739 244.039 31.8745C242.618 31.2752 241.394 30.4606 240.363 29.4222C239.332 28.3881 238.535 27.1598 237.97 25.7459C237.404 24.3319 237.123 22.8039 237.123 21.1705L237.135 21.1662ZM253.399 18.8026C253.34 16.8483 252.795 15.371 251.768 14.3791C250.737 13.3872 249.501 12.8891 248.05 12.8891C246.428 12.8891 245.028 13.4083 243.855 14.4424C242.681 15.4807 241.935 16.9327 241.616 18.7983H253.403L253.399 18.8026Z" fill="#1560BD"/>
<path d="M260.793 21.1662C260.793 19.5327 261.082 18.0048 261.665 16.5908C262.243 15.1768 263.056 13.9485 264.1 12.9102C265.144 11.8761 266.384 11.0572 267.818 10.4579C269.252 9.85852 270.828 9.55884 272.538 9.55884C273.464 9.55884 274.307 9.63903 275.061 9.79943C275.816 9.95982 276.495 10.1582 277.107 10.3903C277.714 10.6225 278.242 10.88 278.695 11.1585C279.144 11.4371 279.513 11.6904 279.806 11.9267C280.183 12.1589 280.384 12.4543 280.414 12.8047C280.443 13.155 280.326 13.5222 280.066 13.8979L279.63 14.5563C279.165 15.2865 278.515 15.4047 277.672 14.9067C277.207 14.5859 276.562 14.2271 275.736 13.8346C274.91 13.442 273.917 13.2436 272.756 13.2436C271.595 13.2436 270.631 13.442 269.692 13.8346C268.749 14.2271 267.935 14.7758 267.256 15.4765C266.573 16.1771 266.045 17.0086 265.668 17.971C265.29 18.9334 265.102 19.9843 265.102 21.124C265.102 22.2636 265.29 23.3146 265.668 24.277C266.045 25.2393 266.581 26.0793 267.277 26.7968C267.973 27.5143 268.79 28.0757 269.734 28.4851C270.677 28.8946 271.712 29.0972 272.844 29.0972C274.177 29.0972 275.317 28.865 276.256 28.3965C277.199 27.928 277.932 27.4932 278.452 27.0838C279.265 26.5562 279.915 26.6913 280.41 27.4764L280.757 28.1348C281.223 28.9241 281.089 29.5657 280.368 30.0637C280.049 30.3254 279.651 30.6125 279.173 30.9164C278.695 31.2245 278.129 31.5157 277.475 31.7943C276.822 32.0729 276.084 32.305 275.258 32.495C274.432 32.6849 273.527 32.7778 272.542 32.7778C270.802 32.7778 269.214 32.4865 267.78 31.8998C266.347 31.3131 265.11 30.5069 264.083 29.4686C263.052 28.4303 262.247 27.2062 261.669 25.788C261.09 24.374 260.797 22.8334 260.797 21.1662H260.793Z" fill="#1560BD"/>
<path d="M286.366 13.7671H284.844C283.918 13.7671 283.453 13.2859 283.453 12.3235V11.7537C283.453 10.7914 283.93 10.3102 284.886 10.3102H286.454V5.44353C286.454 4.48118 286.932 4 287.887 4H289.149C290.105 4 290.583 4.48118 290.583 5.44353V10.306H294.41C295.365 10.306 295.843 10.7871 295.843 11.7495V12.3193C295.843 13.2817 295.378 13.7628 294.451 13.7628H290.583V23.6185C290.583 24.6695 290.729 25.5179 291.019 26.1595C291.308 26.801 291.664 27.2991 292.083 27.6494C292.502 27.9998 292.955 28.2404 293.433 28.3712C293.911 28.5021 294.355 28.5822 294.762 28.6118C295.34 28.6709 295.738 28.8017 295.956 29.0043C296.174 29.2069 296.283 29.5573 296.283 30.0553V30.9755C296.283 31.9378 295.705 32.419 294.544 32.419C293.383 32.419 292.398 32.2586 291.413 31.9378C290.427 31.617 289.564 31.119 288.826 30.4479C288.089 29.7768 287.493 28.9284 287.045 27.9069C286.596 26.8855 286.37 25.6741 286.37 24.2728V13.7628L286.366 13.7671Z" fill="#1560BD"/>
<path fill-rule="evenodd" clip-rule="evenodd" d="M68.2179 16.5106C67.5934 17.9246 67.2832 19.4652 67.2832 21.1282C67.2832 21.1954 67.2837 21.2625 67.2847 21.3293H67.2832V39.5565C67.2832 40.5189 67.761 41.0001 68.7167 41.0001H70.0664C71.0221 41.0001 71.5 40.5189 71.5 39.5565V30.1563C72.3814 30.8743 73.3761 31.4564 74.4802 31.9082C75.9137 32.4949 77.4604 32.7862 79.1119 32.7862C80.7634 32.7862 82.3101 32.4907 83.7436 31.9082C85.1814 31.3258 86.4347 30.5154 87.5077 29.477C88.5808 28.4387 89.4275 27.2146 90.052 25.7964C90.6766 24.3825 90.9867 22.7996 90.9867 21.1324C90.9867 19.4652 90.6766 17.9288 90.052 16.5106C89.4275 15.0924 88.5808 13.8683 87.5077 12.83C86.4347 11.7917 85.1772 10.9897 83.7436 10.4199C82.3101 9.85006 80.7634 9.56726 79.1119 9.56726C77.4604 9.56726 75.9137 9.85006 74.4802 10.4199C73.0467 10.9897 71.7976 11.7959 70.7413 12.83C69.6808 13.8683 68.8425 15.0966 68.2179 16.5106ZM72.1538 24.3487C71.7473 23.3695 71.5461 22.2974 71.5461 21.1282C71.5461 19.9885 71.7473 18.9376 72.1538 17.9752C72.5604 17.0128 73.1012 16.1813 73.7844 15.4807C74.4676 14.78 75.264 14.2313 76.1778 13.8388C77.0916 13.4462 78.0682 13.2478 79.1119 13.2478C80.1556 13.2478 81.1323 13.4462 82.046 13.8388C82.9598 14.2313 83.7646 14.78 84.4604 15.4807C85.1562 16.1813 85.7011 17.0128 86.0909 17.9752C86.4808 18.9376 86.6778 19.959 86.6778 21.1282C86.6778 22.2974 86.4808 23.3695 86.0909 24.3487C85.7011 25.3279 85.1562 26.1679 84.4604 26.8685C83.7646 27.5692 82.9598 28.1179 82.046 28.5105C81.1365 28.903 80.1556 29.1014 79.1119 29.1014C78.0682 29.1014 77.0916 28.903 76.1778 28.5105C75.264 28.1179 74.4634 27.5692 73.7844 26.8685C73.1012 26.1679 72.5604 25.3279 72.1538 24.3487Z" fill="#1560BD"/>
<path fill-rule="evenodd" clip-rule="evenodd" d="M135.933 21.1662C135.933 19.5327 136.223 18.0048 136.805 16.5908C137.384 15.1768 138.197 13.9485 139.241 12.9102C140.284 11.8761 141.525 11.0572 142.958 10.4579C144.392 9.85852 145.968 9.55884 147.678 9.55884C148.605 9.55884 149.447 9.63903 150.202 9.79943C150.956 9.95982 151.635 10.1582 152.247 10.3903C152.855 10.6225 153.383 10.88 153.836 11.1585C154.284 11.4371 154.653 11.6904 154.946 11.9267C155.324 12.1589 155.525 12.4543 155.554 12.8047C155.584 13.155 155.466 13.5222 155.206 13.8979L154.77 14.5563C154.305 15.2865 153.655 15.4047 152.813 14.9067C152.348 14.5859 151.702 14.2271 150.876 13.8346C150.051 13.442 149.057 13.2436 147.896 13.2436C146.735 13.2436 145.771 13.442 144.832 13.8346C143.889 14.2271 143.076 14.7758 142.397 15.4765C141.714 16.1771 141.185 17.0086 140.808 17.971C140.431 18.9334 140.242 19.9843 140.242 21.124C140.242 22.2636 140.431 23.3146 140.808 24.277C141.185 25.2393 141.722 26.0793 142.418 26.7968C143.114 27.5143 143.931 28.0757 144.874 28.4851C145.817 28.8946 146.852 29.0972 147.984 29.0972C149.317 29.0972 150.457 28.865 151.396 28.3965C151.779 28.2061 152.128 28.0213 152.442 27.8414C152.44 27.8374 152.438 27.8353 152.438 27.8353C152.463 27.8173 152.497 27.7925 152.541 27.7609C153.09 27.3663 155.11 25.915 156.673 23.4796C157.791 21.9931 158.2 20.6898 158.63 19.3156C158.934 18.3485 159.248 17.3462 159.828 16.2202C160.438 14.9243 161.234 13.7906 162.223 12.8258C163.279 11.7875 164.529 10.9855 165.962 10.4157C167.396 9.84591 168.942 9.56311 170.594 9.56311C172.245 9.56311 173.792 9.84591 175.225 10.4157C176.659 10.9855 177.916 11.7875 178.985 12.8258C180.058 13.8642 180.905 15.0882 181.53 16.5022C182.154 17.9204 182.464 19.4568 182.464 21.124C182.464 22.7913 182.154 24.3741 181.53 25.7881C180.905 27.2063 180.058 28.4303 178.985 29.4687C177.912 30.507 176.659 31.3174 175.225 31.8999C173.792 32.4823 172.245 32.7778 170.594 32.7778C168.942 32.7778 167.396 32.4866 165.962 31.8999C164.529 31.3132 163.279 30.507 162.223 29.4687C161.693 28.9496 161.218 28.384 160.798 27.771C159.649 26.3627 159.033 26.9562 157.752 28.1916C156.992 28.9246 155.997 29.8835 154.518 30.7845C154.451 30.8281 154.383 30.872 154.314 30.9164C153.836 31.2245 153.27 31.5157 152.616 31.7943C151.962 32.0729 151.224 32.305 150.399 32.495C149.573 32.6849 148.667 32.7778 147.682 32.7778C145.943 32.7778 144.354 32.4865 142.921 31.8998C141.487 31.3173 140.251 30.5069 139.224 29.4686C138.193 28.4303 137.388 27.2062 136.809 25.788C136.231 24.374 135.938 22.8334 135.938 21.1662H135.933ZM163.028 21.124C163.028 22.2932 163.229 23.3653 163.636 24.3445C164.042 25.3238 164.583 26.1637 165.266 26.8644C165.945 27.565 166.746 28.1138 167.66 28.5063C168.573 28.8988 169.55 29.0972 170.594 29.0972C171.637 29.0972 172.618 28.8988 173.528 28.5063C174.437 28.1138 175.246 27.565 175.942 26.8644C176.638 26.1637 177.183 25.3238 177.573 24.3445C177.963 23.3653 178.16 22.2932 178.16 21.124C178.16 19.9549 177.963 18.9334 177.573 17.971C177.183 17.0087 176.638 16.1772 175.942 15.4765C175.246 14.7759 174.442 14.2272 173.528 13.8346C172.614 13.4421 171.637 13.2437 170.594 13.2437C169.55 13.2437 168.573 13.4421 167.66 13.8346C166.746 14.2272 165.949 14.7759 165.266 15.4765C164.583 16.1772 164.042 17.0087 163.636 17.971C163.229 18.9334 163.028 19.9844 163.028 21.124Z" fill="#1560BD"/>
</g>
<defs>
<clipPath id="clip0_46_533">
<rect width="229" height="37" fill="white" transform="translate(67.2832 4)"/>
</clipPath>
</defs>
</svg>
